<svg xmlns="http://www.w3.org/2000/svg" xmlns:xlink="http://www.w3.org/1999/xlink" width="100.618" height="94.466" viewBox="0 0 100.618 94.466">
  <defs>
    <clipPath id="clip-path">
      <rect id="Rectangle_16700" data-name="Rectangle 16700" width="100.618" height="94.466" fill="none"/>
    </clipPath>
  </defs>
  <g id="Group_61882" data-name="Group 61882" transform="translate(0 0)">
    <g id="Group_61881" data-name="Group 61881" transform="translate(0 0)" clip-path="url(#clip-path)">
      <path id="Path_91206" data-name="Path 91206" d="M18.013,72.248a.983.983,0,0,1-.983-.983v-20a.983.983,0,0,1,1.966,0v20a.983.983,0,0,1-.983.983" transform="translate(-0.293 -0.866)" fill="#dae2e2"/>
      <path id="Path_91207" data-name="Path 91207" d="M18.013,77.657a.983.983,0,0,1-.983-.983V75.009a.983.983,0,0,1,1.966,0v1.666a.983.983,0,0,1-.983.983" transform="translate(-0.293 -1.276)" fill="#dae2e2"/>
      <path id="Path_91208" data-name="Path 91208" d="M98.184,38.525,84.08,26.273q-.379.941-.834,1.88L96.893,40.009a4.647,4.647,0,0,1,1.456,5.275,5.719,5.719,0,0,1-5.491,3.553H92.85a2.637,2.637,0,0,0-2.743,2.526V83.414A8.541,8.541,0,0,1,87.484,89.5a10.79,10.79,0,0,1-7.567,3h-.14l-7.1-.067a4.952,4.952,0,0,1-4.87-4.893l-.069-9.862a6.963,6.963,0,0,0-6.945-6.9l-.008,0H41.517A6.653,6.653,0,0,0,34.875,77.4l-.021,9.148a5.364,5.364,0,0,1-1.628,3.8,5.6,5.6,0,0,1-3.841,1.536l-7.96-.1a9.955,9.955,0,0,1-6.989-2.9,7.846,7.846,0,0,1-2.3-5.6l.539-33.905a2.611,2.611,0,0,0-2.7-2.485H8.4a6.3,6.3,0,0,1-6.118-3.96A5.144,5.144,0,0,1,4,37.082L43.419,4.106a9.664,9.664,0,0,1,12.25.091l9.94,8.635a11.419,11.419,0,0,1,1.435-1.356L56.945,2.7a11.639,11.639,0,0,0-14.774-.114L2.734,35.577A7.128,7.128,0,0,0,.441,43.612,8.246,8.246,0,0,0,8.4,48.866h1.643a.644.644,0,0,1,.667.619l-.541,33.772a9.8,9.8,0,0,0,2.85,7,11.93,11.93,0,0,0,8.382,3.5l7.96.1h.092a7.37,7.37,0,0,0,7.366-7.246l.022-9.2a4.684,4.684,0,0,1,4.677-4.666h19.27a4.994,4.994,0,0,1,4.98,4.944l.075,9.863A6.929,6.929,0,0,0,72.661,94.4l7.1.067h.166a12.762,12.762,0,0,0,8.943-3.57,10.482,10.482,0,0,0,3.208-7.481v-32a.669.669,0,0,1,.7-.618,7.694,7.694,0,0,0,7.42-4.829,6.629,6.629,0,0,0-2.009-7.446" transform="translate(0 0)" fill="#8d9ba9"/>
      <path id="Path_91209" data-name="Path 91209" d="M75.135,42.458a7.367,7.367,0,0,1-1.07-.078,7.191,7.191,0,0,1-4.759-2.845c-4.022-5.4-8.817-13.153-8.817-19.428a14.643,14.643,0,0,1,14.63-14.63h.018A14.638,14.638,0,0,1,89.748,20.109c0,6.27-4.794,14.026-8.816,19.427a7.247,7.247,0,0,1-5.8,2.922M75.119,7.54V9.6a10.515,10.515,0,0,0-10.5,10.5c0,4.013,2.842,10.037,8,16.963a3.112,3.112,0,0,0,4.356.647,3.146,3.146,0,0,0,.646-.647c5.16-6.93,8-12.955,8-16.966A10.507,10.507,0,0,0,75.135,9.6Z" transform="translate(-1.042 -0.094)" fill="#00cbc0"/>
      <path id="Path_91210" data-name="Path 91210" d="M75.318,17.507a3.335,3.335,0,1,1-3.335,3.335,3.334,3.334,0,0,1,3.335-3.335" transform="translate(-1.241 -0.302)" fill="#00cbc0"/>
    </g>
  </g>
</svg>
