<svg xmlns="http://www.w3.org/2000/svg" width="10.583" height="10.996" viewBox="0 0 10.583 10.996">
  <g id="Group_59355" data-name="Group 59355" transform="translate(-289.85 -374.127)">
    <path id="Path_30198" data-name="Path 30198" d="M77.646,8.588H74.94V8.16A.989.989,0,0,0,73.857,7.3H71.151a.989.989,0,0,0-1.082.856v.428H67.363v.428h.558l.542,8.129A.989.989,0,0,0,69.545,18H75.5a.989.989,0,0,0,1.082-.856l.532-8.129h.533V8.588ZM70.61,8.16a.5.5,0,0,1,.541-.428h2.706a.5.5,0,0,1,.541.428v.428H70.61Zm5.43,8.962v.022a.5.5,0,0,1-.541.428H69.545A.5.5,0,0,1,69,17.144v-.023l-.541-8.106h8.108Z" transform="translate(222.637 366.973)" fill="#556879" stroke="#556879" stroke-width="0.3"/>
    <rect id="Rectangle_14472" data-name="Rectangle 14472" width="0.541" height="4.526" transform="translate(294.87 378.012)" fill="#556879" stroke="#556879" stroke-width="0.3"/>
    <path id="Path_30199" data-name="Path 30199" d="M167.816,131.018l-.554-4.525-.54.018.554,4.525Z" transform="matrix(0.998, 0.07, -0.07, 0.998, 135.374, 240.164)" fill="#556879" stroke="#556879" stroke-width="0.3"/>
    <path id="Path_30200" data-name="Path 30200" d="M306.863,125.909l-.54-.018-.546,4.542.54.018Z" transform="translate(-15.57 268.313) rotate(-3)" fill="#556879" stroke="#556879" stroke-width="0.3"/>
  </g>
</svg>
