<svg xmlns="http://www.w3.org/2000/svg" width="13.206" height="17.169" viewBox="0 0 13.206 17.169">
  <path id="bell_1_" data-name="bell (1)" d="M14.379,18.261a2.862,2.862,0,0,1-5.4,0H7.462a2.385,2.385,0,0,1-2.179-3.353l.674-1.517V10.63a5.725,5.725,0,0,1,3.815-5.4V4.908a1.908,1.908,0,1,1,3.815,0v.326a5.725,5.725,0,0,1,3.815,5.4v2.76l.674,1.517A2.385,2.385,0,0,1,15.9,18.261Zm-1.046,0H10.027a1.909,1.909,0,0,0,3.306,0Zm-.7-13.274V4.908a.954.954,0,1,0-1.908,0v.079a5.788,5.788,0,0,1,1.908,0Zm-.954.875A4.769,4.769,0,0,0,6.911,10.63v2.861l-.041.194L6.155,15.3a1.431,1.431,0,0,0,1.307,2.012H15.9A1.431,1.431,0,0,0,17.206,15.3l-.715-1.61-.041-.194V10.63A4.769,4.769,0,0,0,11.68,5.861Z" transform="translate(-5.078 -3)"/>
</svg>
