<svg id="Group_60982" data-name="Group 60982" xmlns="http://www.w3.org/2000/svg" xmlns:xlink="http://www.w3.org/1999/xlink" width="16.144" height="19.742" viewBox="0 0 16.144 19.742">
  <defs>
    <clipPath id="clip-path">
      <rect id="Rectangle_16074" data-name="Rectangle 16074" width="16.144" height="19.742" fill="#fff"/>
    </clipPath>
  </defs>
  <g id="Group_60981" data-name="Group 60981" clip-path="url(#clip-path)">
    <path id="Path_84669" data-name="Path 84669" d="M13.942,4.332h-.369a5.659,5.659,0,0,0-11,0H2.2A2.2,2.2,0,0,0,0,6.534V17.541a2.2,2.2,0,0,0,2.2,2.2H13.942a2.2,2.2,0,0,0,2.2-2.2V6.534a2.2,2.2,0,0,0-2.2-2.2M8.072,1.468a4.2,4.2,0,0,1,3.977,2.865H4.094A4.2,4.2,0,0,1,8.072,1.468m6.6,16.073a.735.735,0,0,1-.734.734H2.2a.735.735,0,0,1-.734-.734V6.534A.735.735,0,0,1,2.2,5.8h.207c0,.017,0,.033,0,.05H13.734c0-.016,0-.032,0-.048h.207a.735.735,0,0,1,.734.734Z" transform="translate(0 0)" fill="#fff"/>
  </g>
</svg>
