<svg xmlns="http://www.w3.org/2000/svg" width="20.964" height="20.964" viewBox="0 0 20.964 20.964">
  <path id="Icon_ionic-ios-close-circle" data-name="Icon ionic-ios-close-circle" d="M13.857,3.375A10.482,10.482,0,1,0,24.339,13.857,10.48,10.48,0,0,0,13.857,3.375Zm2.656,14.276L13.857,15,11.2,17.651a.805.805,0,1,1-1.139-1.139l2.656-2.656L10.062,11.2A.805.805,0,0,1,11.2,10.062l2.656,2.656,2.656-2.656A.805.805,0,0,1,17.651,11.2L15,13.857l2.656,2.656a.809.809,0,0,1,0,1.139A.8.8,0,0,1,16.513,17.651Z" transform="translate(-3.375 -3.375)" fill="#c7c7c7"/>
</svg>
