<svg xmlns="http://www.w3.org/2000/svg" width="20.836" height="20.836" viewBox="0 0 20.836 20.836">
    <path id="Icon_ionic-ios-checkmark-circle" data-name="Icon ionic-ios-checkmark-circle"
        d="M13.793,3.375A10.418,10.418,0,1,0,24.211,13.793,10.416,10.416,0,0,0,13.793,3.375Zm5.334,7.538-6.7,6.727h-.005a.9.9,0,0,1-.581.275.877.877,0,0,1-.586-.285l-2.8-2.8a.2.2,0,0,1,0-.285l.892-.892a.194.194,0,0,1,.28,0l2.224,2.224L17.96,9.716a.2.2,0,0,1,.14-.06h0a.182.182,0,0,1,.14.06l.877.907A.2.2,0,0,1,19.127,10.913Z"
        transform="translate(-3.375 -3.375)" fill="#2ad16a" />
</svg>
