<svg xmlns="http://www.w3.org/2000/svg" width="10.737" height="12.075" viewBox="0 0 10.737 12.075">
  <g id="Group_62048" transform="translate(-96.5 -0.121)">
    <path id="Path_30198" d="M77.1,8.466H74.538V7.114a.937.937,0,0,0-1.025-.81H70.95a.937.937,0,0,0-1.025.81V8.466H67.363v.405h.528l.513,7.7a.937.937,0,0,0,1.025.81h5.637a.937.937,0,0,0,1.025-.81l.5-7.7h.5V8.466ZM70.438,7.114a.469.469,0,0,1,.512-.405h2.562a.469.469,0,0,1,.512.405V8.466H70.438Zm5.142,9.434v.021a.469.469,0,0,1-.512.405H69.429a.469.469,0,0,1-.512-.405v-.021L68.4,8.872h7.678Z" transform="translate(29.637 -5.683)" fill="#2b2b2b" stroke="#2b2b2b" stroke-width="1"/>
  </g>
</svg>
