<svg xmlns="http://www.w3.org/2000/svg" width="17.282" height="17.281" viewBox="0 0 17.282 17.281">
  <path id="edit-square-feather" d="M20.163,3.4a8.725,8.725,0,0,1-.655,5.038.477.477,0,0,1-.435.281H17.981l.608.608a.477.477,0,0,1,.05.615,8.765,8.765,0,0,1-8.3,3.58,3.538,3.538,0,0,1-2.1.92.477.477,0,0,1,0-.954,2.539,2.539,0,0,0,1.4-.633A8.765,8.765,0,0,1,19.764,3a.477.477,0,0,1,.4.4Zm-.841,1.117L17.167,6.67A.477.477,0,0,1,16.493,6l2.154-2.154a7.812,7.812,0,0,0-8.118,8.236q.544-.537,1.166-1.281a.477.477,0,1,1,.733.611q-.581.7-1.113,1.236a7.812,7.812,0,0,0,6.307-2.936L16.493,8.578a.477.477,0,0,1,.337-.814h1.928A7.755,7.755,0,0,0,19.322,4.516Zm-.107,7.54a.477.477,0,1,1,.954,0v5.723a2.385,2.385,0,0,1-2.385,2.385H5.385A2.385,2.385,0,0,1,3,17.779V5.379A2.385,2.385,0,0,1,5.385,2.995h5.723a.477.477,0,0,1,0,.954H5.385A1.431,1.431,0,0,0,3.954,5.379v12.4a1.431,1.431,0,0,0,1.431,1.431h12.4a1.431,1.431,0,0,0,1.431-1.431Z" transform="translate(-3 -2.882)"/>
</svg>
