<svg xmlns="http://www.w3.org/2000/svg" width="23.578" height="20.434" viewBox="0 0 23.578 20.434">
  <path id="Vector" d="M23.578,7.4c-.082.449-.123.9-.242,1.342a9,9,0,0,1-1.614,3.145A25.842,25.842,0,0,1,17.813,15.8q-2.5,2.119-5.015,4.219a1.4,1.4,0,0,1-1.953.039c-2.18-1.838-4.414-3.618-6.519-5.541A17.883,17.883,0,0,1,1.42,11.257,7.393,7.393,0,0,1,.494,4.266,6.17,6.17,0,0,1,5.369.126,6.145,6.145,0,0,1,11.53,2.437c.273.324.259.326.525.006A6.187,6.187,0,0,1,16.089.075,6.286,6.286,0,0,1,21.873,2.2a6.8,6.8,0,0,1,1.662,3.909c.01.088.029.174.043.261Z" fill="#fd7600"/>
</svg>
