<svg xmlns="http://www.w3.org/2000/svg" width="18.005" height="15.762" viewBox="0 0 18.005 15.762">
  <path id="Vector" d="M17,5.334c-.059.324-.089.648-.174.968A6.489,6.489,0,0,1,15.662,8.57a18.632,18.632,0,0,1-2.819,2.82q-1.8,1.528-3.616,3.042a1.008,1.008,0,0,1-1.408.028c-1.572-1.326-3.183-2.609-4.7-3.995a12.894,12.894,0,0,1-2.1-2.349A5.33,5.33,0,0,1,.356,3.075,4.448,4.448,0,0,1,3.871.091,4.431,4.431,0,0,1,8.313,1.757c.2.234.187.235.378,0A4.461,4.461,0,0,1,11.6.054a4.533,4.533,0,0,1,4.17,1.53,4.9,4.9,0,0,1,1.2,2.819c.007.063.021.126.031.188Z" transform="translate(0.505 0.502)" fill="none" stroke="#8a9cac" stroke-width="1"/>
</svg>
