<svg xmlns="http://www.w3.org/2000/svg" width="16.71" height="9.348" viewBox="0 0 16.71 9.348">
  <g id="Group_61120" data-name="Group 61120" transform="translate(-86.08 -147.541)">
    <path id="Path_34036" data-name="Path 34036" d="M91.638,149.042c1.452,0,2.9,0,4.356,0a.225.225,0,0,0,.25-.164,2.168,2.168,0,0,1,4-.01.236.236,0,0,0,.262.175c.685-.008,1.369-.006,2.054,0a.664.664,0,0,1,.693.48.654.654,0,0,1-.651.836q-1.046.007-2.092,0a.235.235,0,0,0-.264.172,2.164,2.164,0,0,1-4.009-.015.209.209,0,0,0-.233-.156q-4.261.006-8.521,0a1.835,1.835,0,0,1-.433-.032.63.63,0,0,1-.477-.667.643.643,0,0,1,.54-.6,1.571,1.571,0,0,1,.265-.017Z" transform="translate(-0.49)"/>
    <path id="Path_34037" data-name="Path 34037" d="M97.655,282.252c-1.616,0-3.233,0-4.849,0a.272.272,0,0,0-.307.193,2.163,2.163,0,0,1-3.992-.019.233.233,0,0,0-.264-.173c-.329.011-.659.006-.989,0a.656.656,0,1,1,0-1.308c.342,0,.685,0,1.027,0a.187.187,0,0,0,.211-.135,2.166,2.166,0,0,1,4.031-.009c.054.133.125.144.241.144q4.878,0,9.755,0a.658.658,0,0,1,.716.492.644.644,0,0,1-.635.813c-.684.01-1.369,0-2.054,0Z" transform="translate(-0.467 -126.871)"/>
  </g>
</svg>
