<svg id="_x31__stroke" xmlns="http://www.w3.org/2000/svg" width="21.728" height="21.727" viewBox="0 0 21.728 21.727">
  <g id="Group_25172" data-name="Group 25172">
    <g id="Google">
      <rect id="Rectangle_12432" data-name="Rectangle 12432" width="21.582" height="21.35" transform="translate(0 0.377)" fill="none"/>
      <path id="Path_31189" data-name="Path 31189" d="M5.865,40.461a6.36,6.36,0,0,1,.33-2.017l-3.7-2.8a10.833,10.833,0,0,0,0,9.622l3.7-2.8a6.364,6.364,0,0,1-.326-2.008" transform="translate(-1.132 -29.597)" fill="#fbbc05" fill-rule="evenodd"/>
      <path id="Path_31190" data-name="Path 31190" d="M17.807,4.444a6.405,6.405,0,0,1,4.049,1.432l3.2-3.16A11.057,11.057,0,0,0,7.938,6.051l3.7,2.8a6.475,6.475,0,0,1,6.168-4.4" transform="translate(-6.576)" fill="#ea4335" fill-rule="evenodd"/>
      <path id="Path_31191" data-name="Path 31191" d="M17.807,80.284a6.475,6.475,0,0,1-6.168-4.4l-3.7,2.8a10.975,10.975,0,0,0,9.869,6.052,10.544,10.544,0,0,0,7.165-2.708l-3.513-2.687a6.859,6.859,0,0,1-3.652.95" transform="translate(-6.576 -63.001)" fill="#34a853" fill-rule="evenodd"/>
      <path id="Path_31192" data-name="Path 31192" d="M75.954,54.339a8.907,8.907,0,0,0-.25-1.975H65.457v4.2h5.9a4.892,4.892,0,0,1-2.246,3.247L72.622,62.5a10.747,10.747,0,0,0,3.332-8.156" transform="translate(-54.226 -43.476)" fill="#4285f4" fill-rule="evenodd"/>
    </g>
  </g>
</svg>
