<svg xmlns="http://www.w3.org/2000/svg" width="15.747" height="13.998" viewBox="0 0 15.747 13.998">
  <path id="heart" d="M17.872,9.249c0-2.764-1.5-4.374-3.937-4.374a2.7,2.7,0,0,0-2.671,1.508.437.437,0,0,1-.782,0A2.7,2.7,0,0,0,7.812,4.875c-2.434,0-3.937,1.61-3.937,4.374,0,2.1,2.317,4.723,7,7.789C15.555,13.972,17.872,11.348,17.872,9.249ZM13.935,4c2.931,0,4.812,2.015,4.812,5.249,0,2.532-2.562,5.4-7.636,8.678a.437.437,0,0,1-.475,0C5.562,14.644,3,11.781,3,9.249,3,6.015,4.88,4,7.812,4a3.638,3.638,0,0,1,3.062,1.361A3.638,3.638,0,0,1,13.935,4Z" transform="translate(-3 -4)"/>
</svg>
