<svg xmlns="http://www.w3.org/2000/svg" xmlns:xlink="http://www.w3.org/1999/xlink" width="162.91" height="60.618" viewBox="0 0 162.91 60.618">
  <defs>
    <clipPath id="clip-path">
      <rect id="Rectangle_16348" data-name="Rectangle 16348" width="162.91" height="60.618" fill="#fff"/>
    </clipPath>
  </defs>
  <g id="Group_61250" data-name="Group 61250" clip-path="url(#clip-path)">
    <path id="Path_90628" data-name="Path 90628" d="M30.478,10.624a14.918,14.918,0,0,0-9.9-3.894c-8.342,0-13.4,6.341-13.4,14.35,0,6.4,3.727,13.013,13.4,13.013a12.937,12.937,0,0,0,8.788-3.114v-6.9H19.411V17.521H36.1V33.926a19.393,19.393,0,0,1-15.518,7.009C5.951,40.935,0,31.312,0,21.08,0,10.124,6.842,0,20.578,0A20.566,20.566,0,0,1,35.039,5.952Z" transform="translate(0 0)" fill="#fff"/>
    <path id="Path_90629" data-name="Path 90629" d="M202.191,10.844a14.918,14.918,0,0,0-9.9-3.894c-8.342,0-13.4,6.341-13.4,14.35,0,6.4,3.727,13.013,13.4,13.013a12.937,12.937,0,0,0,8.788-3.114V24.3h-9.955V17.741h16.685V34.147a19.393,19.393,0,0,1-15.518,7.009c-14.627,0-20.578-9.623-20.578-19.855,0-10.956,6.842-21.079,20.578-21.079a20.565,20.565,0,0,1,14.461,5.951Z" transform="translate(-87.982 -0.113)" fill="#fff"/>
    <path id="Path_90630" data-name="Path 90630" d="M99.879,2.614v38.6a19.464,19.464,0,0,1,0-38.6" transform="translate(-42.496 -1.339)" fill="#fff"/>
    <path id="Path_90631" data-name="Path 90631" d="M145,21.926a19.456,19.456,0,0,1-16.941,19.288V2.614A19.462,19.462,0,0,1,145,21.926" transform="translate(-65.614 -1.339)" fill="#fff"/>
    <path id="Path_90632" data-name="Path 90632" d="M293.531,19.424h-38.6a19.464,19.464,0,0,1,38.6,0" transform="translate(-130.621 -1.272)" fill="#fff"/>
    <path id="Path_90633" data-name="Path 90633" d="M274.219,64.544A19.456,19.456,0,0,1,254.931,47.6h38.6a19.462,19.462,0,0,1-19.312,16.941" transform="translate(-130.621 -24.391)" fill="#fff"/>
    <path id="Path_90634" data-name="Path 90634" d="M68.887,112.935H66.5v2.481h-1.59v-8.431c1.325,0,2.65-.012,3.975-.012a2.983,2.983,0,1,1,0,5.962M66.5,111.478h2.385a1.494,1.494,0,1,0,0-2.987H66.5Z" transform="translate(-33.26 -54.811)" fill="#fff"/>
    <path id="Path_90635" data-name="Path 90635" d="M107.371,115.454v-3.409h-4.143v3.409h-1.59v-8.431h1.59v3.553h4.143v-3.553h1.578v8.431Z" transform="translate(-52.077 -54.836)" fill="#fff"/>
    <path id="Path_90636" data-name="Path 90636" d="M144.774,113.839h-4.409l-.722,1.59H137.92L141.7,107h1.735l3.782,8.431h-1.734Zm-2.2-5.071L141,112.358h3.131Z" transform="translate(-70.667 -54.824)" fill="#fff"/>
    <path id="Path_90637" data-name="Path 90637" d="M185.942,115.417h-1.89l-2.458-2.818h-1.53v2.818h-1.59v-8.444c1.337,0,2.674.012,4.011.012a2.794,2.794,0,0,1,3.035,2.794,2.5,2.5,0,0,1-2.132,2.65l2.553,2.879Zm-5.878-6.95v2.7h2.421a1.352,1.352,0,1,0,0-2.7Z" transform="translate(-91.447 -54.811)" fill="#fff"/>
    <path id="Path_90638" data-name="Path 90638" d="M222.487,109.335,219.741,113h-.313l-2.686-3.673v6.131h-1.59v-8.431h1.831l2.638,3.625,2.638-3.625h1.819v8.431h-1.59Z" transform="translate(-110.239 -54.836)" fill="#fff"/>
    <path id="Path_90639" data-name="Path 90639" d="M261.6,113.839h-4.409l-.723,1.59h-1.723L258.525,107h1.734l3.782,8.431h-1.733Zm-2.2-5.071-1.566,3.589h3.132Z" transform="translate(-130.525 -54.824)" fill="#fff"/>
  </g>
</svg>
