<svg xmlns="http://www.w3.org/2000/svg" width="35" height="35" viewBox="0 0 35 35">
  <g id="Group_61583" data-name="Group 61583" transform="translate(-302 -503)">
    <g id="Group_61329" data-name="Group 61329" transform="translate(302.084 503.266)">
      <circle id="Ellipse_63203" data-name="Ellipse 63203" cx="17.5" cy="17.5" r="17.5" transform="translate(-0.084 -0.266)" fill="#ffa558"/>
    </g>
    <path id="Icon_awesome-envelope-open" data-name="Icon awesome-envelope-open" d="M14.495,13.136a1.359,1.359,0,0,1-1.359,1.359H1.359A1.359,1.359,0,0,1,0,13.136V5.682A1.359,1.359,0,0,1,.521,4.613c.705-.553,1.288-1,4.648-3.44C5.645.826,6.59-.01,7.247,0,7.9-.01,8.85.826,9.326,1.173c3.36,2.439,3.944,2.887,4.648,3.44a1.359,1.359,0,0,1,.521,1.069ZM12.636,7.57a.226.226,0,0,0-.321-.054c-.647.478-1.57,1.152-2.989,2.182-.476.347-1.421,1.183-2.078,1.173-.657.01-1.6-.825-2.078-1.173C3.75,8.668,2.827,7.994,2.18,7.516a.226.226,0,0,0-.321.054L1.6,7.943a.226.226,0,0,0,.052.31c.648.478,1.57,1.152,2.981,2.176.574.418,1.6,1.354,2.612,1.347s2.037-.928,2.612-1.347c1.411-1.024,2.333-1.7,2.981-2.176a.226.226,0,0,0,.052-.31l-.257-.374Z" transform="translate(312.253 512.207)" fill="#fff"/>
  </g>
</svg>
