<svg xmlns="http://www.w3.org/2000/svg" width="20.704" height="20.704" viewBox="0 0 20.704 20.704">
  <path id="my-location" d="M19.892,11.8a8.553,8.553,0,0,1-8.09,8.09v1.362a.45.45,0,0,1-.9,0V19.892a8.553,8.553,0,0,1-8.09-8.09H1.45a.45.45,0,1,1,0-.9H2.812a8.553,8.553,0,0,1,8.09-8.09V1.45a.45.45,0,1,1,.9,0V2.812a8.553,8.553,0,0,1,8.09,8.09h1.362a.45.45,0,1,1,0,.9ZM11.352,19A7.652,7.652,0,1,0,3.7,11.352,7.652,7.652,0,0,0,11.352,19Zm0-3.6A4.051,4.051,0,1,1,15.4,11.352,4.051,4.051,0,0,1,11.352,15.4Zm0-.9A3.151,3.151,0,1,0,8.2,11.352,3.151,3.151,0,0,0,11.352,14.5Z" transform="translate(-1 -1)"/>
</svg>
