<svg xmlns="http://www.w3.org/2000/svg" xmlns:xlink="http://www.w3.org/1999/xlink" width="95.322" height="94.954" viewBox="0 0 95.322 94.954">
  <defs>
    <clipPath id="clip-path">
      <rect id="Rectangle_16699" data-name="Rectangle 16699" width="95.322" height="94.954" fill="none"/>
    </clipPath>
  </defs>
  <g id="Group_61880" data-name="Group 61880" transform="translate(0 0)">
    <g id="Group_61879" data-name="Group 61879" transform="translate(0 0)" clip-path="url(#clip-path)">
      <path id="Path_91199" data-name="Path 91199" d="M27.424,64.543a1.081,1.081,0,0,1-.853-1.74,5.734,5.734,0,0,1,4.021-2.2h.018a4.465,4.465,0,0,1,2.637.807,2.19,2.19,0,0,0,1.423.458A2.521,2.521,0,0,0,36.358,61a5.8,5.8,0,0,1,1.929-1.247c2.319-.834,4.558.625,6.443,2.16a1.08,1.08,0,1,1-1.365,1.674c-2.008-1.635-3.309-2.175-4.349-1.8a3.886,3.886,0,0,0-1.233.836,4.569,4.569,0,0,1-3.025,1.4,4.164,4.164,0,0,1-2.651-.781,2.336,2.336,0,0,0-1.419-.486,3.556,3.556,0,0,0-2.408,1.364,1.081,1.081,0,0,1-.856.42" transform="translate(2.114 4.776)" fill="#596877"/>
      <path id="Path_91200" data-name="Path 91200" d="M18.641,49.591a2.748,2.748,0,1,1-2.748,2.748,2.748,2.748,0,0,1,2.748-2.748" transform="translate(1.275 3.98)" fill="#596877"/>
      <path id="Path_91201" data-name="Path 91201" d="M43.729,49.591a2.748,2.748,0,1,1-2.748,2.748,2.748,2.748,0,0,1,2.748-2.748" transform="translate(3.289 3.98)" fill="#596877"/>
      <path id="Path_91202" data-name="Path 91202" d="M73.337,83.826A45.03,45.03,0,1,1,84.135,72.9l1.534,1.535a47.247,47.247,0,1,0-10.8,10.922Z" transform="translate(0 0)" fill="#8d9ba9"/>
      <path id="Path_91203" data-name="Path 91203" d="M80.723,90h0a9.555,9.555,0,0,1-6.806-2.819l-9.074-9.068A9.625,9.625,0,0,1,78.455,64.505l9.069,9.074A9.621,9.621,0,0,1,80.718,90M71.644,66.226A5.083,5.083,0,0,0,68.05,74.9l9.074,9.074a5.083,5.083,0,1,0,7.188-7.188l-9.074-9.074a5.043,5.043,0,0,0-3.594-1.49" transform="translate(4.978 4.95)" fill="#00cbc0"/>
      <path id="Path_91204" data-name="Path 91204" d="M81.221,39.338a1.08,1.08,0,0,1-1.052-.836A38.207,38.207,0,0,0,48.618,9.191,1.08,1.08,0,0,1,48.9,7.049l.041.006A40.359,40.359,0,0,1,82.275,38.016a1.081,1.081,0,0,1-.809,1.3h0a1.157,1.157,0,0,1-.244.026" transform="translate(3.826 0.565)" fill="#dae2e2"/>
      <path id="Path_91205" data-name="Path 91205" d="M35,9.8a1.08,1.08,0,0,1-.239-2.133A40.917,40.917,0,0,1,43.4,6.622h.014a1.08,1.08,0,0,1,.014,2.161,38.513,38.513,0,0,0-8.183.988A1.108,1.108,0,0,1,35,9.8" transform="translate(2.722 0.531)" fill="#dae2e2"/>
    </g>
  </g>
</svg>
