<svg xmlns="http://www.w3.org/2000/svg" xmlns:xlink="http://www.w3.org/1999/xlink" width="93.86" height="98.263" viewBox="0 0 93.86 98.263">
  <defs>
    <clipPath id="clip-path">
      <rect id="Rectangle_16581" data-name="Rectangle 16581" width="93.86" height="98.263" fill="none"/>
    </clipPath>
  </defs>
  <g id="Group_61890" data-name="Group 61890" transform="translate(0 0)">
    <g id="Group_61699" data-name="Group 61699" transform="translate(0 0)">
      <g id="Group_61698" data-name="Group 61698" clip-path="url(#clip-path)">
        <path id="Path_91067" data-name="Path 91067" d="M47.742,38.9h-.018c-18.2-.276-31.337-.066-31.469-.063h-.018a1.114,1.114,0,0,1-.019-2.228c.131,0,13.3-.212,31.541.063a1.114,1.114,0,0,1-.018,2.228" transform="translate(1.722 4.16)" fill="#8d9ba9"/>
        <path id="Path_91068" data-name="Path 91068" d="M44.66,49.914h-.018c-16.411-.25-28.267-.058-28.385-.057h-.019a1.114,1.114,0,0,1-.018-2.228c.118,0,12-.2,28.458.057a1.114,1.114,0,0,1-.018,2.228" transform="translate(1.722 5.416)" fill="#8d9ba9"/>
        <path id="Path_91069" data-name="Path 91069" d="M54.042,49.863h-.017c-4.186-.06-7.2-.011-7.235-.011h-.018a1.114,1.114,0,0,1-.019-2.228c.03,0,3.082-.049,7.3.011a1.114,1.114,0,0,1-.017,2.228" transform="translate(5.2 5.422)" fill="#8d9ba9"/>
        <path id="Path_91070" data-name="Path 91070" d="M51.106,60.557h-.018c-20.141-.306-34.688-.071-34.831-.069h-.019a1.115,1.115,0,0,1-.018-2.229c.146,0,14.72-.235,34.9.07a1.114,1.114,0,0,1-.018,2.228" transform="translate(1.722 6.625)" fill="#8d9ba9"/>
        <path id="Path_91071" data-name="Path 91071" d="M69.264,51.332a1.113,1.113,0,0,1-1.114-1.114V27.545a1.114,1.114,0,0,1,2.228,0V50.218a1.113,1.113,0,0,1-1.114,1.114" transform="translate(7.762 3.01)" fill="#dae2e2"/>
        <path id="Path_91072" data-name="Path 91072" d="M69.264,54.3a1.113,1.113,0,0,1-1.114-1.114V51.293a1.114,1.114,0,0,1,2.228,0v1.889A1.113,1.113,0,0,1,69.264,54.3" transform="translate(7.762 5.715)" fill="#dae2e2"/>
        <path id="Path_91073" data-name="Path 91073" d="M78.917,97.036H7.369A7.379,7.379,0,0,1,0,89.666L.356,18.9c-.014-.429-.07-4.06,2.354-6.042a9.182,9.182,0,0,1,6.07-1.645l77.34-.44h.006a1.112,1.112,0,0,1,1.114,1.121l-.456,77.28a7.876,7.876,0,0,1-7.866,7.861M8.037,13.409A6.932,6.932,0,0,0,4.05,14.637C2.474,15.93,2.583,18.8,2.583,18.827s0,.04,0,.059L2.228,89.672a5.146,5.146,0,0,0,5.139,5.136h71.55a5.645,5.645,0,0,0,5.639-5.637l.45-76.162-76.317.429c-.218-.018-.437-.028-.652-.028" transform="translate(0 1.227)" fill="#8f9aa7"/>
        <path id="Path_91074" data-name="Path 91074" d="M80.477,30.014H76.332l-.013-1.128V11.351l.9-.6.94.207.254.414,6.214,11.768a4.692,4.692,0,0,1-4.149,6.878m-1.93-2.228h1.93a2.462,2.462,0,0,0,2.178-3.61l-4.108-7.784Z" transform="translate(8.692 1.224)" fill="#8f9aa7"/>
        <path id="Path_91075" data-name="Path 91075" d="M42.035,11.815,47.3,6.391a5.063,5.063,0,0,1,7.061-.124,4.976,4.976,0,0,1,.12,6.914L42.433,25.5a1.318,1.318,0,0,1-1.891-1.832L43.7,20.454a2.253,2.253,0,0,0-.08-3.159,2.569,2.569,0,0,0-3.631.063L37.1,20.348a6.069,6.069,0,0,0,8.725,8.427L57.875,16.6A9.783,9.783,0,0,0,50.672.05L50.719,0a9.992,9.992,0,0,0-6.863,3.016l-8.625,8.918s.77-.063,2.585-.046Z" transform="translate(4.012)" fill="#00cbc0"/>
      </g>
    </g>
  </g>
</svg>
