<svg xmlns="http://www.w3.org/2000/svg" xmlns:xlink="http://www.w3.org/1999/xlink" width="106" height="95.07" viewBox="0 0 106 95.07">
  <defs>
    <clipPath id="clip-path">
      <rect id="Rectangle_16698" data-name="Rectangle 16698" width="106" height="95.07" fill="none"/>
    </clipPath>
  </defs>
  <g id="Group_62498" data-name="Group 62498" transform="translate(0 0)">
    <g id="Group_61877" data-name="Group 61877" transform="translate(0 0)" clip-path="url(#clip-path)">
      <path id="Path_91194" data-name="Path 91194" d="M86.383,91.709h-59.7A18.4,18.4,0,0,1,8.3,73.327V40.963A18.4,18.4,0,0,1,26.681,22.582h59.7a18.4,18.4,0,0,1,18.381,18.381V73.327A18.4,18.4,0,0,1,86.383,91.709M26.681,24.88A16.1,16.1,0,0,0,10.6,40.963V73.327A16.1,16.1,0,0,0,26.681,89.411h59.7a16.1,16.1,0,0,0,16.084-16.084V40.963A16.1,16.1,0,0,0,86.383,24.88Z" transform="translate(1.235 3.361)" fill="#8d9ba9"/>
      <path id="Path_91195" data-name="Path 91195" d="M74.4,39.164h-.021c-28.7-.434-49.437-.1-49.644-.1h-.018a1.149,1.149,0,1,1-.02-2.3c.207,0,20.972-.335,49.718.1a1.149,1.149,0,0,1-.018,2.3" transform="translate(3.507 5.454)" fill="#8d9ba9"/>
      <path id="Path_91196" data-name="Path 91196" d="M10.847,65.329,3.182,43.069l0-.007A16.084,16.084,0,0,1,13.154,22.62L69.6,3.183l.007,0a16.084,16.084,0,0,1,20.442,9.974l5.64,16.376,2.869,1.282L92.219,12.407A18.382,18.382,0,0,0,68.855,1.01L12.407,20.449A18.382,18.382,0,0,0,1.01,43.811l9.773,28.383Z" transform="translate(0.001 0.001)" fill="#8d9ba9"/>
      <path id="Path_91197" data-name="Path 91197" d="M70.117,66.183a5.156,5.156,0,0,1,3.409-4.841,8.291,8.291,0,1,0-.315,9.571,5.167,5.167,0,0,1-3.094-4.73m-3.495,3.189a3.458,3.458,0,1,1,3.458-3.458,3.459,3.459,0,0,1-3.458,3.458" transform="translate(8.683 8.578)" fill="#8d9ba9"/>
      <path id="Path_91198" data-name="Path 91198" d="M74.666,57.632a8.282,8.282,0,1,0,0,16.564h0a8.282,8.282,0,0,0,0-16.564m0,11.74a3.458,3.458,0,1,1,3.458-3.458,3.459,3.459,0,0,1-3.458,3.458" transform="translate(9.88 8.578)" fill="#00cbc0"/>
    </g>
  </g>
</svg>
