<svg xmlns="http://www.w3.org/2000/svg" width="97.045" height="101.598" viewBox="0 0 97.045 101.598">
  <g id="Group_62452" data-name="Group 62452" transform="translate(-758 -348.493)">
    <path id="Path_91071" data-name="Path 91071" d="M69.3,52.177a1.151,1.151,0,0,1-1.152-1.152V27.583a1.152,1.152,0,1,1,2.3,0V51.025A1.151,1.151,0,0,1,69.3,52.177" transform="translate(768.338 352.503)" fill="#dae2e2"/>
    <path id="Path_91072" data-name="Path 91072" d="M69.3,54.436a1.151,1.151,0,0,1-1.152-1.152V51.331a1.152,1.152,0,1,1,2.3,0v1.953A1.151,1.151,0,0,1,69.3,54.436" transform="translate(768.338 356.105)" fill="#dae2e2"/>
    <path id="Path_91073" data-name="Path 91073" d="M81.6,99.963H7.62A7.63,7.63,0,0,1,0,92.344L.369,19.177C.354,18.733.3,14.979,2.8,12.93a9.494,9.494,0,0,1,6.276-1.7l79.964-.455h.006A1.15,1.15,0,0,1,90.2,11.933l-.471,79.9A8.143,8.143,0,0,1,81.6,99.963M8.309,13.5a7.167,7.167,0,0,0-4.122,1.269c-1.63,1.337-1.517,4.3-1.517,4.333s0,.041,0,.061L2.3,92.35a5.321,5.321,0,0,0,5.314,5.31H81.6a5.837,5.837,0,0,0,5.83-5.829l.465-78.747-78.907.443c-.226-.018-.451-.029-.674-.029" transform="translate(758 350.128)" fill="#8f9aa7"/>
    <path id="Path_91074" data-name="Path 91074" d="M80.618,30.668H76.333L76.319,29.5V11.371l.929-.625.972.214.263.428,6.425,12.168a4.852,4.852,0,0,1-4.29,7.112m-2-2.3h2a2.546,2.546,0,0,0,2.252-3.733l-4.247-8.048Z" transform="translate(769.577 350.123)" fill="#8f9aa7"/>
    <rect id="Rectangle_16581" data-name="Rectangle 16581" width="97.045" height="101.598" transform="translate(758 348.493)" fill="none"/>
    <g id="Icon_awesome-star" data-name="Icon awesome-star" transform="translate(773.427 378.934)" fill="#fff">
      <path d="M 6.737208366394043 23.23492622375488 C 6.737161159515381 23.23492622375488 6.73713207244873 23.23492622375488 6.73708438873291 23.23492622375488 C 6.031524181365967 23.23488616943359 5.363224506378174 22.92225646972656 4.903544425964355 22.37721633911133 C 4.452484607696533 21.84238624572754 4.262114524841309 21.13630676269531 4.38124418258667 20.44002532958984 L 5.37788724899292 14.639573097229 L 1.164704322814941 10.53401565551758 C 0.5084543824195862 9.895035743713379 0.2765943706035614 8.956055641174316 0.5598743557929993 8.083775520324707 C 0.8430343866348267 7.211875915527344 1.581724405288696 6.588615894317627 2.487674474716187 6.457215785980225 L 8.311092376708984 5.608220100402832 L 10.9141845703125 0.3302759528160095 C 11.3196439743042 -0.4909640550613403 12.13959407806396 -1.000894069671631 13.05424404144287 -1.000894069671631 C 13.9709939956665 -1.000894069671631 14.79301452636719 -0.4915240406990051 15.19951438903809 0.3284359574317932 L 17.80351638793945 5.60822057723999 L 23.62766456604004 6.45732593536377 C 24.53288459777832 6.588615894317627 25.27158355712891 7.211885929107666 25.55474472045898 8.083786010742188 C 25.8380241394043 8.956066131591797 25.60615348815918 9.895035743713379 24.94961357116699 10.53428554534912 L 20.73672866821289 14.63956451416016 L 21.73324394226074 20.4393367767334 C 21.85240364074707 21.13574600219727 21.66232490539551 21.84108543395996 21.21186447143555 22.37516593933105 C 20.75193405151367 22.92047500610352 20.08270454406738 23.23322677612305 19.37577438354492 23.23322677612305 C 18.9886646270752 23.23322677612305 18.61574363708496 23.14033508300781 18.26737403869629 22.9571361541748 L 13.05730438232422 20.21856689453125 L 7.84706449508667 22.95722579956055 C 7.500566482543945 23.14093399047852 7.126087665557861 23.23492622375488 6.737208366394043 23.23492622375488 Z" stroke="none"/>
      <path d="M 13.05423927307129 -0.00089263916015625 C 12.56017303466797 -0.000946044921875 12.0664529800415 0.2552738189697266 11.81103420257568 0.7726058959960938 L 8.975454330444336 6.521936416625977 L 2.631214141845703 7.446866035461426 C 1.493503570556641 7.611875534057617 1.037544250488281 9.01447582244873 1.862604141235352 9.817815780639648 L 6.4525146484375 14.29048633575439 L 5.366924285888672 20.60867691040039 C 5.171514511108398 21.7507266998291 6.374351501464844 22.60617637634277 7.381793975830078 22.07205581665039 L 13.05730438232422 19.08883666992188 L 18.73281478881836 22.07205581665039 C 19.74025726318359 22.60183525085449 20.94309425354004 21.75071716308594 20.74768447875977 20.60867691040039 L 19.66209411621094 14.29048633575439 L 24.25200462341309 9.817815780639648 C 25.07705497741699 9.01447582244873 24.6211051940918 7.611875534057617 23.48339462280273 7.446866035461426 L 17.1391544342041 6.521936416625977 L 14.30357456207275 0.7726058959960938 C 14.04876899719238 0.258636474609375 13.55133056640625 -0.0008373260498046875 13.05423927307129 -0.00089263916015625 M 13.05410480499268 -2.000894546508789 L 13.05448436737061 -2.000894546508789 C 14.35382461547852 -2.000734329223633 15.5190544128418 -1.27839469909668 16.09545516967773 -0.115753173828125 L 18.46788787841797 4.694507598876953 L 23.77192497253418 5.46778678894043 C 25.05605506896973 5.654035568237305 26.10418510437012 6.538146018981934 26.50583457946777 7.774895668029785 C 26.9076042175293 9.012016296386719 26.57861518859863 10.34389591217041 25.64724349975586 11.25075626373291 L 21.81136512756348 14.98865127563477 L 22.71880340576172 20.26999664306641 C 22.88789367675781 21.25822639465332 22.61716461181641 22.26002502441406 21.97627449035645 23.01989555358887 C 21.32591438293457 23.79098510742188 20.3780632019043 24.23322677612305 19.37576484680176 24.23322677612305 C 18.83258438110352 24.23322677612305 18.28836441040039 24.0980167388916 17.80192565917969 23.84221649169922 L 13.0573034286499 21.34829711914062 L 8.314594268798828 23.84120750427246 C 7.827156066894531 24.09878730773926 7.281784057617188 24.23492622375488 6.737144470214844 24.23492622375488 C 5.736234664916992 24.23492622375488 4.789323806762695 23.7928352355957 4.139194488525391 23.02202606201172 C 3.497653961181641 22.26139640808105 3.226613998413086 21.25881576538086 3.395574569702148 20.27136611938477 L 4.303245544433594 14.98865222930908 L 0.4668045043945312 11.25020599365234 C -0.4640064239501953 10.34390640258789 -0.7930049896240234 9.012036323547363 -0.3912353515625 7.774906158447266 C 0.01041412353515625 6.538155555725098 1.058544158935547 5.654035568237305 2.344144821166992 5.467575073242188 L 7.646718978881836 4.694507598876953 L 10.01732444763184 -0.1120548248291016 C 10.59270477294922 -1.277423858642578 11.75618457794189 -2.000894546508789 13.05410480499268 -2.000894546508789 Z" stroke="none" fill="#8f9aa7"/>
    </g>
    <g id="Icon_feather-mouse-pointer" data-name="Icon feather-mouse-pointer" transform="translate(811.475 414.151)">
      <g id="Path_91440" data-name="Path 91440" transform="translate(-4.5 -4.5)" fill="#fff" stroke-linecap="round" stroke-linejoin="round">
        <path d="M 12.66137504577637 29.2901554107666 L 10.62465476989746 24.40144538879395 L 2.653815031051636 5.269145965576172 L 0.7860949635505676 0.7860859036445618 L 5.269155025482178 2.65380597114563 L 24.40144538879395 10.62465572357178 L 29.2901554107666 12.66137599945068 L 24.27550506591797 14.36459636688232 L 16.87735939025879 16.87735939025879 L 14.36459541320801 24.27550506591797 L 12.66137504577637 29.2901554107666 Z" stroke="none"/>
        <path d="M 4.499994277954102 4.499996185302734 L 12.47084522247314 23.63229560852051 L 15.3006649017334 15.30066585540771 L 23.63228607177734 12.47084617614746 L 4.499994277954102 4.499996185302734 M 4.500886917114258 0.4998779296875 C 5.018844604492188 0.4998779296875 5.541160583496094 0.6005058288574219 6.038305282592773 0.8076267242431641 L 25.17059516906738 8.778476715087891 C 26.70660400390625 9.418405532836914 27.68602561950684 10.94242668151855 27.63001441955566 12.60547542572021 C 27.57401466369629 14.26851558685303 26.49429512023926 15.72319602966309 24.91870498657227 16.25834655761719 L 18.45405387878418 18.45405197143555 L 16.25834465026855 24.91871643066406 C 15.72319507598877 26.49429512023926 14.26851463317871 27.57402610778809 12.6054744720459 27.63002586364746 C 10.94243812561035 27.68603515625 9.418405532836914 26.70661544799805 8.778474807739258 25.17060661315918 L 0.8076248168945312 6.038305282592773 C 0.1842842102050781 4.542125701904297 0.5254650115966797 2.817676544189453 1.671564102172852 1.671566009521484 C 2.436851501464844 0.9062862396240234 3.46002197265625 0.4998779296875 4.500886917114258 0.4998779296875 Z" stroke="none" fill="#36bfb8"/>
      </g>
      <path id="Path_91441" data-name="Path 91441" d="M19.5,19.5l6.765,6.765" transform="translate(-5.922 -5.922)" fill="none" stroke="#36bfb8" stroke-linecap="round" stroke-linejoin="round" stroke-width="4"/>
    </g>
  </g>
</svg>
