<svg id="Group_8780" data-name="Group 8780" xmlns="http://www.w3.org/2000/svg" width="18.342" height="18.725" viewBox="0 0 18.342 18.725">
  <g id="Oval" transform="translate(0 0)" fill="none" stroke-linecap="round">
    <path d="M7.577,0A7.661,7.661,0,0,1,15.2,7.632a7.548,7.548,0,0,1-7.577,7.585A7.661,7.661,0,0,1,0,7.585,7.548,7.548,0,0,1,7.577,0Z" stroke="none"/>
    <path d="M 7.552995681762695 1.499996185302734 C 5.931045532226562 1.499996185302734 4.408875465393066 2.130825996398926 3.266875267028809 3.276286125183105 C 2.12259578704834 4.424025535583496 1.495115280151367 5.952646255493164 1.500025749206543 7.58055591583252 C 1.510205268859863 10.95389556884766 4.259025573730469 13.70680618286133 7.628445625305176 13.71724605560303 L 7.646995544433594 13.71727561950684 C 9.268945693969727 13.71727561950684 10.79111576080322 13.08644580841064 11.93311595916748 11.94098567962646 C 13.07739543914795 10.79324531555176 13.70487594604492 9.264625549316406 13.69996547698975 7.636715888977051 C 13.68978595733643 4.263376235961914 10.94096565246582 1.510465621948242 7.571545600891113 1.500025749206543 L 7.552995681762695 1.499996185302734 M 7.552998542785645 -9.5367431640625e-07 C 7.561190605163574 -9.5367431640625e-07 7.568837642669678 1.049041748046875e-05 7.577035427093506 3.62396240234375e-05 C 11.77437591552734 0.0130462646484375 15.18727588653564 3.430075645446777 15.19995594024658 7.632185935974121 C 15.21263599395752 11.83430671691895 11.82001972198486 15.23024559020996 7.622955799102783 15.21723556518555 C 3.425615310668945 15.20422554016113 0.01271533966064453 11.78719615936279 3.528594970703125e-05 7.585085868835449 C -0.01261997222900391 3.391173362731934 3.367005348205566 -9.5367431640625e-07 7.552998542785645 -9.5367431640625e-07 Z" stroke="none" fill="#8a9cac"/>
  </g>
  <path id="Path_6" data-name="Path 6" d="M0,0,2.871,3.664" transform="translate(13.873 13.915) rotate(-7)" fill="none" stroke="#8a9cac" stroke-linecap="round" stroke-width="1.5"/>
</svg>
