<svg xmlns="http://www.w3.org/2000/svg" xmlns:xlink="http://www.w3.org/1999/xlink" width="93.305" height="95.163" viewBox="0 0 93.305 95.163">
  <defs>
    <clipPath id="clip-path">
      <rect id="Rectangle_16578" data-name="Rectangle 16578" width="93.305" height="95.163" fill="none"/>
    </clipPath>
  </defs>
  <g id="Group_61871" data-name="Group 61871" transform="translate(0 0)">
    <g id="Group_61692" data-name="Group 61692" transform="translate(0 0)" clip-path="url(#clip-path)">
      <path id="Path_91044" data-name="Path 91044" d="M75.742,35.127H17.563A17.563,17.563,0,1,1,17.563,0H75.742a17.563,17.563,0,1,1,0,35.127M17.563,2.2a15.368,15.368,0,1,0,0,30.736H75.742a15.368,15.368,0,1,0,0-30.736Z" transform="translate(0 0)" fill="#8d9ba9"/>
      <path id="Path_91045" data-name="Path 91045" d="M75.742,65.127H17.563a17.563,17.563,0,1,1,0-35.127H75.742a17.563,17.563,0,1,1,0,35.127M17.563,32.2a15.368,15.368,0,1,0,0,30.736H75.742a15.368,15.368,0,1,0,0-30.736Z" transform="translate(0 2.931)" fill="#8d9ba9"/>
      <path id="Path_91046" data-name="Path 91046" d="M54.662,17.341H13.7a1.1,1.1,0,1,1,0-2.2H54.662a1.1,1.1,0,1,1,0,2.2" transform="translate(1.231 1.479)" fill="#8d9ba9"/>
      <path id="Path_91047" data-name="Path 91047" d="M54.662,47.874H13.7a1.1,1.1,0,1,1,0-2.2H54.662a1.1,1.1,0,1,1,0,2.2" transform="translate(1.231 4.463)" fill="#8d9ba9"/>
      <path id="Path_91048" data-name="Path 91048" d="M65.688,86.888H24.723a1.1,1.1,0,1,1,0-2.2H65.688a1.1,1.1,0,1,1,0,2.2" transform="translate(2.308 8.274)" fill="#8d9ba9"/>
      <path id="Path_91049" data-name="Path 91049" d="M68.684,24.368a7.683,7.683,0,1,1,7.684-7.684,7.692,7.692,0,0,1-7.684,7.684m0-10.758a3.074,3.074,0,1,0,3.075,3.074,3.078,3.078,0,0,0-3.075-3.074" transform="translate(5.96 0.879)" fill="#00cbc0"/>
      <path id="Path_91050" data-name="Path 91050" d="M68.684,54.368a7.683,7.683,0,1,1,7.684-7.684,7.692,7.692,0,0,1-7.684,7.684m0-10.757a3.074,3.074,0,1,0,3.075,3.074,3.078,3.078,0,0,0-3.075-3.074" transform="translate(5.96 3.81)" fill="#00cbc0"/>
      <rect id="Rectangle_16577" data-name="Rectangle 16577" width="2.195" height="26.068" transform="translate(46.417 67.997)" fill="#8d9ba9"/>
    </g>
  </g>
</svg>
