<svg xmlns="http://www.w3.org/2000/svg" width="21.771" height="24.023" viewBox="0 0 21.771 24.023">
  <g id="Icon_feather-share-2" data-name="Icon feather-share-2" transform="translate(0.75 0.75)">
    <path id="Path_80420" data-name="Path 80420" d="M29.257,6.378A3.379,3.379,0,1,1,25.879,3a3.379,3.379,0,0,1,3.379,3.378Z" transform="translate(-8.986 -3)" fill="none" stroke="#8a9cac" stroke-linecap="round" stroke-linejoin="round" stroke-width="1.5"/>
    <path id="Path_80421" data-name="Path 80421" d="M11.257,16.878A3.379,3.379,0,1,1,7.879,13.5,3.379,3.379,0,0,1,11.257,16.878Z" transform="translate(-4.5 -5.617)" fill="none" stroke="#8a9cac" stroke-linecap="round" stroke-linejoin="round" stroke-width="1.5"/>
    <path id="Path_80422" data-name="Path 80422" d="M29.257,27.378A3.379,3.379,0,1,1,25.879,24,3.379,3.379,0,0,1,29.257,27.378Z" transform="translate(-8.986 -8.234)" fill="none" stroke="#8a9cac" stroke-linecap="round" stroke-linejoin="round" stroke-width="1.5"/>
    <path id="Path_80423" data-name="Path 80423" d="M12.885,20.265l7.692,4.482" transform="translate(-6.59 -7.303)" fill="none" stroke="#8a9cac" stroke-linecap="round" stroke-linejoin="round" stroke-width="1.5"/>
    <path id="Path_80424" data-name="Path 80424" d="M20.565,9.765l-7.68,4.482" transform="translate(-6.59 -4.686)" fill="none" stroke="#8a9cac" stroke-linecap="round" stroke-linejoin="round" stroke-width="1.5"/>
  </g>
</svg>
