<svg xmlns="http://www.w3.org/2000/svg" width="15.754" height="15.747" viewBox="0 0 15.754 15.747">
  <path id="shopping-bag-alt_1_" data-name="shopping-bag-alt (1)" d="M16.567,17.872a1.313,1.313,0,0,0,1.312-1.312V6.254A1.738,1.738,0,0,1,17,6.5H4.749a1.73,1.73,0,0,1-.875-.242v10.3a1.313,1.313,0,0,0,1.312,1.312Zm-11.817-14a.875.875,0,0,0,0,1.75H17a.875.875,0,0,0,0-1.75Zm13.989.8a.383.383,0,0,1,.015.07V16.56a2.187,2.187,0,0,1-2.187,2.187H5.187A2.187,2.187,0,0,1,3,16.56V4.75A1.75,1.75,0,0,1,4.749,3H17A1.745,1.745,0,0,1,18.739,4.673Zm-3.929,2.7a.437.437,0,0,1,0,.875h-.437a3.5,3.5,0,1,1-7,0H6.937a.437.437,0,0,1,0-.875h1.75a.437.437,0,0,1,0,.875H8.249a2.625,2.625,0,1,0,5.249,0h-.437a.437.437,0,0,1,0-.875Z" transform="translate(-3 -3)"/>
</svg>
