<svg xmlns="http://www.w3.org/2000/svg" width="20.208" height="19.358" viewBox="0 0 20.208 19.358">
  <g id="Icon_feather-shopping-cart" data-name="Icon feather-shopping-cart" transform="translate(-0.75 -0.75)">
    <path id="Path_91242" data-name="Path 91242" d="M13.7,30.85a.85.85,0,1,1-.85-.85A.85.85,0,0,1,13.7,30.85Z" transform="translate(-4.547 -12.343)" fill="none" stroke="#00cbc0" stroke-linecap="round" stroke-linejoin="round" stroke-width="1.5"/>
    <path id="Path_91243" data-name="Path 91243" d="M30.2,30.85a.85.85,0,1,1-.85-.85A.85.85,0,0,1,30.2,30.85Z" transform="translate(-11.693 -12.343)" fill="none" stroke="#00cbc0" stroke-linecap="round" stroke-linejoin="round" stroke-width="1.5"/>
    <path id="Path_91244" data-name="Path 91244" d="M1.5,1.5H4.9L7.181,12.887a1.7,1.7,0,0,0,1.7,1.369h8.266a1.7,1.7,0,0,0,1.7-1.369l1.361-7.135H5.752" fill="none" stroke="#00cbc0" stroke-linecap="round" stroke-linejoin="round" stroke-width="1.5"/>
  </g>
</svg>
