<svg id="Group_61680" data-name="Group 61680" xmlns="http://www.w3.org/2000/svg" xmlns:xlink="http://www.w3.org/1999/xlink" width="111.385" height="106.151" viewBox="0 0 111.385 106.151">
  <defs>
    <clipPath id="clip-path">
      <rect id="Rectangle_16571" data-name="Rectangle 16571" width="111.385" height="106.151" fill="none"/>
    </clipPath>
  </defs>
  <g id="Group_61679" data-name="Group 61679" clip-path="url(#clip-path)">
    <path id="Path_91006" data-name="Path 91006" d="M83.33,106.151a7.567,7.567,0,1,1,7.565-7.566h-2a5.565,5.565,0,1,0-5.565,5.566,5.574,5.574,0,0,0,5.565-5.566h2a7.575,7.575,0,0,1-7.566,7.566" fill="#8d9ba9"/>
    <path id="Path_91007" data-name="Path 91007" d="M91.021,85.689h-44.4c-6.575,0-10.989-4.349-12.767-12.578L26.529,33.953A12.556,12.556,0,0,1,36.19,19.075,13.572,13.572,0,0,1,38.9,18.8H98.836a12.557,12.557,0,0,1,12.271,15.181l-7.312,39.1c-1.784,8.256-6.2,12.606-12.774,12.606ZM38.821,20.8a10.617,10.617,0,0,0-2.214.233,10.557,10.557,0,0,0-8.117,12.53l7.325,39.154c1.57,7.272,5.208,10.974,10.806,10.974h44.4c5.6,0,9.237-3.7,10.813-11l7.312-39.1a10.681,10.681,0,0,0,.238-2.3A10.569,10.569,0,0,0,98.829,20.8H38.821Z" fill="#8d9ba9"/>
    <path id="Path_91008" data-name="Path 91008" d="M54.313,106.151a7.567,7.567,0,1,1,7.565-7.567h0a7.575,7.575,0,0,1-7.566,7.567m0-13.133a5.567,5.567,0,1,0,5.566,5.566h0a5.575,5.575,0,0,0-5.565-5.566" fill="#8d9ba9"/>
    <path id="Path_91009" data-name="Path 91009" d="M27.756,36.1a1,1,0,0,1-.983-.826L23,13.938A5.919,5.919,0,0,0,17.213,9.39H1a1,1,0,0,1,0-2H17.213a7.922,7.922,0,0,1,7.747,6.147l3.781,21.389a1,1,0,0,1-.81,1.158.949.949,0,0,1-.175.016" fill="#8d9ba9"/>
    <path id="Path_91010" data-name="Path 91010" d="M68.706,0A18.684,18.684,0,1,1,50.022,18.684,18.684,18.684,0,0,1,68.706,0" fill="#fff"/>
    <path id="Path_91011" data-name="Path 91011" d="M68.706,37.367A18.684,18.684,0,1,1,87.39,18.683,18.705,18.705,0,0,1,68.706,37.367m0-33.167A14.484,14.484,0,1,0,83.19,18.683,14.5,14.5,0,0,0,68.706,4.2" fill="#36bfb8"/>
    <path id="Path_91012" data-name="Path 91012" d="M67.481,25.238a2.1,2.1,0,0,1-1.364-.5l-4.636-3.963a2.1,2.1,0,0,1,2.729-3.193l3.034,2.594L73.2,13.164a2.1,2.1,0,0,1,3.2,2.719L69.082,24.5a2.1,2.1,0,0,1-1.434.734c-.056,0-.111.006-.167.006" fill="#36bfb8"/>
    <path id="Path_91013" data-name="Path 91013" d="M56.278,48.908a2.544,2.544,0,1,1-2.544,2.544,2.544,2.544,0,0,1,2.544-2.544" fill="#596877"/>
    <path id="Path_91014" data-name="Path 91014" d="M81.365,48.908a2.544,2.544,0,1,1-2.544,2.544,2.544,2.544,0,0,1,2.544-2.544" fill="#596877"/>
    <path id="Path_91015" data-name="Path 91015" d="M69.457,65.146h-.078c-4.286,0-7.809-2.38-8.757-5.923a1,1,0,0,1,1.932-.517c.715,2.672,3.475,4.419,6.894,4.44a6.747,6.747,0,0,0,6.373-4.513,1,1,0,0,1,1.887.662,8.742,8.742,0,0,1-8.251,5.851" fill="#596877"/>
    <path id="Path_91016" data-name="Path 91016" d="M87.987,78.236a1,1,0,0,1,0-2h1.784a5.247,5.247,0,0,0,4.995-4.055l3.741-19.274a1,1,0,1,1,1.962.381L96.721,72.6a7.258,7.258,0,0,1-6.93,5.636Z" fill="#dae2e2"/>
    <path id="Path_91017" data-name="Path 91017" d="M100.234,50.582a.948.948,0,0,1-.2-.02,1,1,0,0,1-.784-1.176l.848-4.241a1,1,0,1,1,1.961.392l-.849,4.241a1,1,0,0,1-.979.8" fill="#dae2e2"/>
  </g>
</svg>
