<svg xmlns="http://www.w3.org/2000/svg" width="35" height="35" viewBox="0 0 35 35">
  <g id="Group_61330" data-name="Group 61330" transform="translate(-0.135 0.266)">
    <circle id="Ellipse_63204" data-name="Ellipse 63204" cx="17.5" cy="17.5" r="17.5" transform="translate(0.135 -0.266)" fill="#40c4e3"/>
    <path id="Icon_awesome-twitter" data-name="Icon awesome-twitter" d="M13.613,6.452c.01.135.01.27.01.4A8.787,8.787,0,0,1,4.775,15.7,8.787,8.787,0,0,1,0,14.308a6.432,6.432,0,0,0,.751.038,6.228,6.228,0,0,0,3.861-1.329A3.115,3.115,0,0,1,1.7,10.861a3.921,3.921,0,0,0,.587.048A3.289,3.289,0,0,0,3.11,10.8,3.11,3.11,0,0,1,.616,7.751V7.713a3.132,3.132,0,0,0,1.406.395,3.114,3.114,0,0,1-.963-4.159A8.839,8.839,0,0,0,7.471,7.2a3.51,3.51,0,0,1-.077-.712,3.113,3.113,0,0,1,5.382-2.128,6.122,6.122,0,0,0,1.974-.751,3.1,3.1,0,0,1-1.367,1.714,6.234,6.234,0,0,0,1.791-.481A6.684,6.684,0,0,1,13.613,6.452Z" transform="translate(10.135 7.353)" fill="#fff"/>
  </g>
</svg>
