<svg xmlns="http://www.w3.org/2000/svg" width="16.215" height="18.122" viewBox="0 0 16.215 18.122">
  <path id="user-plus" d="M16.4,18.307V15.923a.477.477,0,1,1,.954,0v2.385h2.385a.477.477,0,0,1,0,.954H17.353v2.385a.477.477,0,1,1-.954,0V19.261H14.015a.477.477,0,0,1,0-.954Zm-2.821-5.184a4.783,4.783,0,0,1-3.893,0l-3.893,1.77a1.431,1.431,0,0,0-.839,1.3v.679a1.431,1.431,0,0,0,1.431,1.431h4.769a.477.477,0,0,1,0,.954H6.385A2.385,2.385,0,0,1,4,16.876V16.2a2.385,2.385,0,0,1,1.4-2.171l3.3-1.5a4.769,4.769,0,1,1,5.887-.013l2.482,1.061a.477.477,0,0,1-.375.877l-3.11-1.33Zm-1.948-.539A3.815,3.815,0,1,0,7.815,8.769,3.815,3.815,0,0,0,11.63,12.584Z" transform="translate(-4 -4)"/>
</svg>
