<svg xmlns="http://www.w3.org/2000/svg" width="35" height="35" viewBox="0 0 35 35">
  <g id="Group_61328" data-name="Group 61328" transform="translate(-0.012 0.266)">
    <circle id="Ellipse_63202" data-name="Ellipse 63202" cx="17.5" cy="17.5" r="17.5" transform="translate(0.012 -0.266)" fill="#4ccc65"/>
    <path id="Icon_ionic-logo-whatsapp" data-name="Icon ionic-logo-whatsapp" d="M9.973,2.25A7.419,7.419,0,0,0,2.525,9.64a7.314,7.314,0,0,0,1.069,3.816L2.25,17.421l4.123-1.31A7.46,7.46,0,0,0,17.421,9.64,7.419,7.419,0,0,0,9.973,2.25Zm3.7,10.2a1.924,1.924,0,0,1-1.317.849c-.349.019-.359.271-2.263-.557A7.771,7.771,0,0,1,6.956,9.77a3.652,3.652,0,0,1-.7-1.98,2.11,2.11,0,0,1,.725-1.548.729.729,0,0,1,.516-.217c.15,0,.247,0,.358,0s.277-.023.422.36.489,1.326.533,1.422a.345.345,0,0,1,0,.331,1.293,1.293,0,0,1-.2.308c-.1.107-.209.238-.3.32s-.2.189-.1.382a5.7,5.7,0,0,0,1.008,1.346,5.2,5.2,0,0,0,1.493.993c.187.1.3.09.414-.031s.5-.533.63-.717.259-.148.431-.079,1.089.561,1.276.662.311.153.356.234A1.564,1.564,0,0,1,13.677,12.447Z" transform="translate(7.516 6.823)" fill="#fff"/>
  </g>
</svg>
