<svg xmlns="http://www.w3.org/2000/svg" width="22.259" height="19.526" viewBox="0 0 22.259 19.526">
  <path id="Vector" d="M20.752,6.512c-.072.4-.108.791-.213,1.181a7.922,7.922,0,0,1-1.421,2.769A22.745,22.745,0,0,1,15.678,13.9q-2.2,1.865-4.414,3.713a1.231,1.231,0,0,1-1.719.034c-1.919-1.618-3.885-3.184-5.737-4.877A15.74,15.74,0,0,1,1.25,9.908,6.507,6.507,0,0,1,.435,3.754,5.43,5.43,0,0,1,4.726.111a5.409,5.409,0,0,1,5.423,2.034c.24.285.228.287.462.005A5.445,5.445,0,0,1,14.161.066a5.533,5.533,0,0,1,5.09,1.868,5.982,5.982,0,0,1,1.463,3.441c.009.077.025.153.038.23Z" transform="translate(0.757 0.753)" fill="none" stroke="#fff" stroke-width="1.5"/>
</svg>
