<svg xmlns="http://www.w3.org/2000/svg" width="22.989" height="22.989" viewBox="0 0 22.989 22.989">
  <g id="Group_61179" data-name="Group 61179" transform="translate(-321.885 -164.885)">
    <path id="Icon_material-close" data-name="Icon material-close" d="M15.462,8.3l-.8-.8-3.179,3.179L8.3,7.5l-.8.8,3.179,3.179L7.5,14.66l.8.8,3.179-3.179,3.179,3.179.8-.8-3.179-3.179Z" transform="translate(321.939 165.123)" fill="#707070"/>
    <g id="Path_91216" data-name="Path 91216" transform="translate(321.885 164.885)" fill="none">
      <path d="M11.495,0A11.495,11.495,0,1,1,0,11.495,11.495,11.495,0,0,1,11.495,0Z" stroke="none"/>
      <path d="M 11.49451160430908 1.000001907348633 C 5.707820892333984 1.000001907348633 1.000001907348633 5.707820892333984 1.000001907348633 11.49451160430908 C 1.000001907348633 17.28120231628418 5.707820892333984 21.98902130126953 11.49451160430908 21.98902130126953 C 17.28120231628418 21.98902130126953 21.98902130126953 17.28120231628418 21.98902130126953 11.49451160430908 C 21.98902130126953 5.707820892333984 17.28120231628418 1.000001907348633 11.49451160430908 1.000001907348633 M 11.49451160430908 1.9073486328125e-06 C 17.84275054931641 1.9073486328125e-06 22.98902130126953 5.146270751953125 22.98902130126953 11.49451160430908 C 22.98902130126953 17.84275054931641 17.84275054931641 22.98902130126953 11.49451160430908 22.98902130126953 C 5.146270751953125 22.98902130126953 1.9073486328125e-06 17.84275054931641 1.9073486328125e-06 11.49451160430908 C 1.9073486328125e-06 5.146270751953125 5.146270751953125 1.9073486328125e-06 11.49451160430908 1.9073486328125e-06 Z" stroke="none" fill="#707070"/>
    </g>
  </g>
</svg>
