<svg xmlns="http://www.w3.org/2000/svg" xmlns:xlink="http://www.w3.org/1999/xlink" width="93.876" height="97.143" viewBox="0 0 93.876 97.143">
  <defs>
    <clipPath id="clip-path">
      <rect id="Rectangle_16575" data-name="Rectangle 16575" width="93.876" height="97.143" fill="none"/>
    </clipPath>
  </defs>
  <g id="Group_61869" data-name="Group 61869" transform="translate(0 0)">
    <g id="Group_61688" data-name="Group 61688" transform="translate(0 0)" clip-path="url(#clip-path)">
      <path id="Path_91025" data-name="Path 91025" d="M79.891,96.157H13.986C6.274,96.157,0,88.9,0,79.986V12.43a1.087,1.087,0,0,1,1.087-1.087h91.7a1.087,1.087,0,0,1,1.087,1.087V79.986c0,8.915-6.272,16.168-13.983,16.171ZM2.174,13.517V79.986c0,7.717,5.3,14,11.812,14h65.9c6.513,0,11.812-6.279,11.812-14V13.517Z" transform="translate(0 0.987)" fill="#8d9ba9"/>
      <path id="Path_91026" data-name="Path 91026" d="M92.631,14.5H1.087a1.086,1.086,0,0,1-.566-2.014L20.675.16A1.082,1.082,0,0,1,21.241,0h53.41a1.078,1.078,0,0,1,.614.191L93.245,12.52a1.087,1.087,0,0,1-.614,1.984M4.947,12.329H89.123L74.314,2.174H21.547Z" transform="translate(0 0)" fill="#8d9ba9"/>
      <path id="Path_91027" data-name="Path 91027" d="M68.792,9.791A1.087,1.087,0,0,1,67.705,8.7V1.087a1.087,1.087,0,1,1,2.174,0V8.7a1.087,1.087,0,0,1-1.087,1.087" transform="translate(5.887 0)" fill="#8d9ba9"/>
      <path id="Path_91028" data-name="Path 91028" d="M20.043,9.791A1.087,1.087,0,0,1,18.956,8.7V1.087a1.087,1.087,0,0,1,2.174,0V8.7a1.087,1.087,0,0,1-1.087,1.087" transform="translate(1.648 0)" fill="#8d9ba9"/>
      <path id="Path_91029" data-name="Path 91029" d="M28.542,30.165A12.316,12.316,0,0,1,18.208,24.4a2.283,2.283,0,0,1,3.862-2.435,7.764,7.764,0,0,0,6.5,3.634H61.276a8.68,8.68,0,0,0,7.138-3.9,2.282,2.282,0,0,1,3.807,2.517A13.242,13.242,0,0,1,61.3,30.165Z" transform="translate(1.553 1.799)" fill="#00cbc0"/>
      <path id="Path_91030" data-name="Path 91030" d="M51.986,70.954a1.084,1.084,0,0,1-.629-.2,10.606,10.606,0,0,0-12.263-.024,1.087,1.087,0,0,1-1.255-1.775,12.78,12.78,0,0,1,14.779.029,1.087,1.087,0,0,1-.632,1.972" transform="translate(3.25 5.793)" fill="#596877"/>
      <path id="Path_91031" data-name="Path 91031" d="M28.986,56.143a2.765,2.765,0,1,1-2.765,2.765,2.765,2.765,0,0,1,2.765-2.765" transform="translate(2.28 4.882)" fill="#596877"/>
      <path id="Path_91032" data-name="Path 91032" d="M54.073,56.143a2.765,2.765,0,1,1-2.765,2.765,2.765,2.765,0,0,1,2.765-2.765" transform="translate(4.462 4.882)" fill="#596877"/>
      <path id="Path_91033" data-name="Path 91033" d="M78.564,62.887A1.086,1.086,0,0,1,77.477,61.8V39.674a1.087,1.087,0,0,1,2.174,0V61.8a1.086,1.086,0,0,1-1.087,1.087" transform="translate(6.737 3.356)" fill="#dae2e2"/>
      <path id="Path_91034" data-name="Path 91034" d="M78.564,66.353a1.086,1.086,0,0,1-1.087-1.087V63.423a1.087,1.087,0,1,1,2.174,0v1.843a1.086,1.086,0,0,1-1.087,1.087" transform="translate(6.737 5.421)" fill="#dae2e2"/>
    </g>
  </g>
</svg>
